solid 
   facet normal -0.000000e+00 -0.000000e+00 -1.000000e+00
      outer loop
         vertex -9.500000e+00 1.050000e+01 0.000000e+00
         vertex 9.500000e+00 1.050000e+01 0.000000e+00
         vertex 9.500000e+00 -1.050000e+01 0.000000e+00
      endloop
   endfacet
   facet normal 0.000000e+00 0.000000e+00 -1.000000e+00
      outer loop
         vertex 9.500000e+00 -1.050000e+01 0.000000e+00
         vertex -9.500000e+00 -1.050000e+01 0.000000e+00
         vertex -9.500000e+00 1.050000e+01 0.000000e+00
      endloop
   endfacet
   facet normal 0.000000e+00 0.000000e+00 -1.000000e+00
      outer loop
         vertex -1.050000e+01 -1.150000e+01 0.000000e+00
         vertex -1.190000e+01 -1.250000e+01 0.000000e+00
         vertex -1.190000e+01 1.250000e+01 0.000000e+00
      endloop
   endfacet
   facet normal 0.000000e+00 0.000000e+00 -1.000000e+00
      outer loop
         vertex -1.050000e+01 -1.150000e+01 0.000000e+00
         vertex 1.190000e+01 -1.250000e+01 0.000000e+00
         vertex -1.190000e+01 -1.250000e+01 0.000000e+00
      endloop
   endfacet
   facet normal 0.000000e+00 -0.000000e+00 -1.000000e+00
      outer loop
         vertex 1.050000e+01 1.150000e+01 0.000000e+00
         vertex 1.190000e+01 1.250000e+01 0.000000e+00
         vertex 1.190000e+01 -1.250000e+01 0.000000e+00
      endloop
   endfacet
   facet normal 0.000000e+00 0.000000e+00 -1.000000e+00
      outer loop
         vertex -1.050000e+01 1.150000e+01 0.000000e+00
         vertex -1.190000e+01 1.250000e+01 0.000000e+00
         vertex 1.190000e+01 1.250000e+01 0.000000e+00
      endloop
   endfacet
   facet normal -0.000000e+00 -0.000000e+00 -1.000000e+00
      outer loop
         vertex -1.190000e+01 1.250000e+01 0.000000e+00
         vertex -1.050000e+01 1.150000e+01 0.000000e+00
         vertex -1.050000e+01 -1.150000e+01 0.000000e+00
      endloop
   endfacet
   facet normal 0.000000e+00 0.000000e+00 -1.000000e+00
      outer loop
         vertex 1.190000e+01 1.250000e+01 0.000000e+00
         vertex 1.050000e+01 1.150000e+01 0.000000e+00
         vertex -1.050000e+01 1.150000e+01 0.000000e+00
      endloop
   endfacet
   facet normal 0.000000e+00 0.000000e+00 -1.000000e+00
      outer loop
         vertex 1.190000e+01 -1.250000e+01 0.000000e+00
         vertex 1.050000e+01 -1.150000e+01 0.000000e+00
         vertex 1.050000e+01 1.150000e+01 0.000000e+00
      endloop
   endfacet
   facet normal 0.000000e+00 0.000000e+00 -1.000000e+00
      outer loop
         vertex 1.190000e+01 -1.250000e+01 0.000000e+00
         vertex -1.050000e+01 -1.150000e+01 0.000000e+00
         vertex 1.050000e+01 -1.150000e+01 0.000000e+00
      endloop
   endfacet
   facet normal -1.000000e+00 0.000000e+00 0.000000e+00
      outer loop
         vertex -1.050000e+01 -1.150000e+01 -1.000000e+00
         vertex -1.050000e+01 -1.150000e+01 0.000000e+00
         vertex -1.050000e+01 1.150000e+01 0.000000e+00
      endloop
   endfacet
   facet normal -1.000000e+00 0.000000e+00 0.000000e+00
      outer loop
         vertex -1.050000e+01 1.150000e+01 0.000000e+00
         vertex -1.050000e+01 1.150000e+01 -1.000000e+00
         vertex -1.050000e+01 -1.150000e+01 -1.000000e+00
      endloop
   endfacet
   facet normal -0.000000e+00 1.000000e+00 0.000000e+00
      outer loop
         vertex -1.050000e+01 1.150000e+01 -1.000000e+00
         vertex -1.050000e+01 1.150000e+01 0.000000e+00
         vertex 1.050000e+01 1.150000e+01 0.000000e+00
      endloop
   endfacet
   facet normal 0.000000e+00 1.000000e+00 -0.000000e+00
      outer loop
         vertex 1.050000e+01 1.150000e+01 0.000000e+00
         vertex 1.050000e+01 1.150000e+01 -1.000000e+00
         vertex -1.050000e+01 1.150000e+01 -1.000000e+00
      endloop
   endfacet
   facet normal 1.000000e+00 0.000000e+00 0.000000e+00
      outer loop
         vertex 1.050000e+01 1.150000e+01 -1.000000e+00
         vertex 1.050000e+01 1.150000e+01 0.000000e+00
         vertex 1.050000e+01 -1.150000e+01 0.000000e+00
      endloop
   endfacet
   facet normal 1.000000e+00 0.000000e+00 0.000000e+00
      outer loop
         vertex 1.050000e+01 -1.150000e+01 0.000000e+00
         vertex 1.050000e+01 -1.150000e+01 -1.000000e+00
         vertex 1.050000e+01 1.150000e+01 -1.000000e+00
      endloop
   endfacet
   facet normal -0.000000e+00 -1.000000e+00 -0.000000e+00
      outer loop
         vertex 1.050000e+01 -1.150000e+01 -1.000000e+00
         vertex 1.050000e+01 -1.150000e+01 0.000000e+00
         vertex -1.050000e+01 -1.150000e+01 0.000000e+00
      endloop
   endfacet
   facet normal 0.000000e+00 -1.000000e+00 0.000000e+00
      outer loop
         vertex -1.050000e+01 -1.150000e+01 0.000000e+00
         vertex -1.050000e+01 -1.150000e+01 -1.000000e+00
         vertex 1.050000e+01 -1.150000e+01 -1.000000e+00
      endloop
   endfacet
   facet normal 1.000000e+00 0.000000e+00 -0.000000e+00
      outer loop
         vertex -9.500000e+00 -1.050000e+01 -1.000000e+00
         vertex -9.500000e+00 1.050000e+01 -1.000000e+00
         vertex -9.500000e+00 1.050000e+01 0.000000e+00
      endloop
   endfacet
   facet normal 1.000000e+00 -0.000000e+00 0.000000e+00
      outer loop
         vertex -9.500000e+00 1.050000e+01 0.000000e+00
         vertex -9.500000e+00 -1.050000e+01 0.000000e+00
         vertex -9.500000e+00 -1.050000e+01 -1.000000e+00
      endloop
   endfacet
   facet normal 0.000000e+00 -1.000000e+00 0.000000e+00
      outer loop
         vertex -9.500000e+00 1.050000e+01 -1.000000e+00
         vertex 9.500000e+00 1.050000e+01 -1.000000e+00
         vertex 9.500000e+00 1.050000e+01 0.000000e+00
      endloop
   endfacet
   facet normal 0.000000e+00 -1.000000e+00 0.000000e+00
      outer loop
         vertex 9.500000e+00 1.050000e+01 0.000000e+00
         vertex -9.500000e+00 1.050000e+01 0.000000e+00
         vertex -9.500000e+00 1.050000e+01 -1.000000e+00
      endloop
   endfacet
   facet normal -1.000000e+00 0.000000e+00 0.000000e+00
      outer loop
         vertex 9.500000e+00 1.050000e+01 -1.000000e+00
         vertex 9.500000e+00 -1.050000e+01 -1.000000e+00
         vertex 9.500000e+00 -1.050000e+01 0.000000e+00
      endloop
   endfacet
   facet normal -1.000000e+00 -0.000000e+00 -0.000000e+00
      outer loop
         vertex 9.500000e+00 -1.050000e+01 0.000000e+00
         vertex 9.500000e+00 1.050000e+01 0.000000e+00
         vertex 9.500000e+00 1.050000e+01 -1.000000e+00
      endloop
   endfacet
   facet normal 0.000000e+00 1.000000e+00 0.000000e+00
      outer loop
         vertex 9.500000e+00 -1.050000e+01 -1.000000e+00
         vertex -9.500000e+00 -1.050000e+01 -1.000000e+00
         vertex -9.500000e+00 -1.050000e+01 0.000000e+00
      endloop
   endfacet
   facet normal 0.000000e+00 1.000000e+00 0.000000e+00
      outer loop
         vertex -9.500000e+00 -1.050000e+01 0.000000e+00
         vertex 9.500000e+00 -1.050000e+01 0.000000e+00
         vertex 9.500000e+00 -1.050000e+01 -1.000000e+00
      endloop
   endfacet
   facet normal 0.000000e+00 1.000000e+00 -0.000000e+00
      outer loop
         vertex 1.190000e+01 1.250000e+01 1.000000e+00
         vertex 1.190000e+01 1.250000e+01 0.000000e+00
         vertex -1.190000e+01 1.250000e+01 0.000000e+00
      endloop
   endfacet
   facet normal -0.000000e+00 1.000000e+00 0.000000e+00
      outer loop
         vertex -1.190000e+01 1.250000e+01 0.000000e+00
         vertex -1.190000e+01 1.250000e+01 1.000000e+00
         vertex 1.190000e+01 1.250000e+01 1.000000e+00
      endloop
   endfacet
   facet normal 1.000000e+00 0.000000e+00 0.000000e+00
      outer loop
         vertex 1.190000e+01 -1.250000e+01 1.000000e+00
         vertex 1.190000e+01 -1.250000e+01 0.000000e+00
         vertex 1.190000e+01 1.250000e+01 0.000000e+00
      endloop
   endfacet
   facet normal 1.000000e+00 0.000000e+00 0.000000e+00
      outer loop
         vertex 1.190000e+01 1.250000e+01 0.000000e+00
         vertex 1.190000e+01 1.250000e+01 1.000000e+00
         vertex 1.190000e+01 -1.250000e+01 1.000000e+00
      endloop
   endfacet
   facet normal 0.000000e+00 -1.000000e+00 0.000000e+00
      outer loop
         vertex -1.190000e+01 -1.250000e+01 1.000000e+00
         vertex -1.190000e+01 -1.250000e+01 0.000000e+00
         vertex 1.190000e+01 -1.250000e+01 0.000000e+00
      endloop
   endfacet
   facet normal -0.000000e+00 -1.000000e+00 -0.000000e+00
      outer loop
         vertex 1.190000e+01 -1.250000e+01 0.000000e+00
         vertex 1.190000e+01 -1.250000e+01 1.000000e+00
         vertex -1.190000e+01 -1.250000e+01 1.000000e+00
      endloop
   endfacet
   facet normal -1.000000e+00 0.000000e+00 0.000000e+00
      outer loop
         vertex -1.190000e+01 1.250000e+01 1.000000e+00
         vertex -1.190000e+01 1.250000e+01 0.000000e+00
         vertex -1.190000e+01 -1.250000e+01 0.000000e+00
      endloop
   endfacet
   facet normal -1.000000e+00 0.000000e+00 0.000000e+00
      outer loop
         vertex -1.190000e+01 -1.250000e+01 0.000000e+00
         vertex -1.190000e+01 -1.250000e+01 1.000000e+00
         vertex -1.190000e+01 1.250000e+01 1.000000e+00
      endloop
   endfacet
   facet normal 0.000000e+00 0.000000e+00 -1.000000e+00
      outer loop
         vertex 1.050000e+01 -1.150000e+01 -1.000000e+00
         vertex -1.050000e+01 -1.150000e+01 -1.000000e+00
         vertex -9.500000e+00 -1.050000e+01 -1.000000e+00
      endloop
   endfacet
   facet normal 0.000000e+00 0.000000e+00 -1.000000e+00
      outer loop
         vertex -1.050000e+01 -1.150000e+01 -1.000000e+00
         vertex -1.050000e+01 1.150000e+01 -1.000000e+00
         vertex -9.500000e+00 1.050000e+01 -1.000000e+00
      endloop
   endfacet
   facet normal -0.000000e+00 0.000000e+00 -1.000000e+00
      outer loop
         vertex -1.050000e+01 1.150000e+01 -1.000000e+00
         vertex 1.050000e+01 1.150000e+01 -1.000000e+00
         vertex 9.500000e+00 1.050000e+01 -1.000000e+00
      endloop
   endfacet
   facet normal 0.000000e+00 0.000000e+00 -1.000000e+00
      outer loop
         vertex 1.050000e+01 1.150000e+01 -1.000000e+00
         vertex 1.050000e+01 -1.150000e+01 -1.000000e+00
         vertex 9.500000e+00 1.050000e+01 -1.000000e+00
      endloop
   endfacet
   facet normal 0.000000e+00 0.000000e+00 -1.000000e+00
      outer loop
         vertex 9.500000e+00 1.050000e+01 -1.000000e+00
         vertex -9.500000e+00 1.050000e+01 -1.000000e+00
         vertex -1.050000e+01 1.150000e+01 -1.000000e+00
      endloop
   endfacet
   facet normal -0.000000e+00 0.000000e+00 -1.000000e+00
      outer loop
         vertex -9.500000e+00 1.050000e+01 -1.000000e+00
         vertex -9.500000e+00 -1.050000e+01 -1.000000e+00
         vertex -1.050000e+01 -1.150000e+01 -1.000000e+00
      endloop
   endfacet
   facet normal -0.000000e+00 -0.000000e+00 -1.000000e+00
      outer loop
         vertex -9.500000e+00 -1.050000e+01 -1.000000e+00
         vertex 9.500000e+00 -1.050000e+01 -1.000000e+00
         vertex 1.050000e+01 -1.150000e+01 -1.000000e+00
      endloop
   endfacet
   facet normal 0.000000e+00 0.000000e+00 -1.000000e+00
      outer loop
         vertex 9.500000e+00 -1.050000e+01 -1.000000e+00
         vertex 9.500000e+00 1.050000e+01 -1.000000e+00
         vertex 1.050000e+01 -1.150000e+01 -1.000000e+00
      endloop
   endfacet
   facet normal -0.000000e+00 0.000000e+00 1.000000e+00
      outer loop
         vertex 1.190000e+01 1.250000e+01 1.000000e+00
         vertex -1.190000e+01 1.250000e+01 1.000000e+00
         vertex -1.190000e+01 -1.250000e+01 1.000000e+00
      endloop
   endfacet
   facet normal 0.000000e+00 -0.000000e+00 1.000000e+00
      outer loop
         vertex -1.190000e+01 -1.250000e+01 1.000000e+00
         vertex 1.190000e+01 -1.250000e+01 1.000000e+00
         vertex 1.190000e+01 1.250000e+01 1.000000e+00
      endloop
   endfacet
endsolid
